<svg xmlns="http://www.w3.org/2000/svg" version="1.1" xmlns:xlink="http://www.w3.org/1999/xlink"
    xmlns:svgjs="http://svgjs.com/svgjs" width="80" height="80" x="0" y="0" viewBox="0 0 511.987 511.987"
    style="enable-background:new 0 0 512 512" xml:space="preserve" class="">
    <g>
        <path d="M50.5 333.494a7.5 7.5 0 0 0 0 15H116a7.5 7.5 0 0 0 0-15z" fill="#000000" data-original="#000000"
            class=""></path>
        <path
            d="m503.572 388.371-31.579-31.579.007-253.769c0-6.892-5.607-12.5-12.5-12.5l-72.189-.005c-28.421-27.204-68.354-43.159-108.069-43.025-41.755 0-79.757 16.364-107.941 43.01l-69.769-.007h-.001a7.5 7.5 0 0 0-.001 15l55.833.006a158.15 158.15 0 0 0-11.466 15.997l-130.891-.008v-15.998l51.524.003c4.142 0 7.5-3.357 7.5-7.5s-3.357-7.5-7.5-7.5l-54.025-.003c-6.893 0-12.5 5.607-12.5 12.5L0 382.97c0 6.893 5.607 12.5 12.5 12.5l101.628.007c4.142 0 7.5-3.357 7.5-7.5s-3.357-7.5-7.5-7.5L15 380.47l.006-243.979 122.586.008a155.999 155.999 0 0 0-11.247 31.494H51a7.5 7.5 0 0 0-7.5 7.5v60a7.5 7.5 0 0 0 7.5 7.5h75.716a155.96 155.96 0 0 0 6.682 20.5H50.5a7.5 7.5 0 0 0 0 15h89.908a157.65 157.65 0 0 0 12.679 20H50.5a7.5 7.5 0 0 0 0 15h115.285c28.638 29.864 68.913 48.486 113.458 48.486 27.504 0 54.125-7.113 77.571-20.431l14.996 14.996a14.334 14.334 0 0 0 10.167 4.205c3.286 0 6.567-1.124 9.228-3.356l23.103 23.104-265.18-.019c-4.142 0-7.5 3.357-7.5 7.5s3.357 7.5 7.5 7.5l32.726.002-6.576 23.99-12.968-.003c-18.644 0-33.811 15.167-33.811 33.81v3.688a7.5 7.5 0 0 0 7.499 7.5l199.997.029h.001a7.502 7.502 0 0 0 7.5-7.5v-3.688c0-18.643-15.167-33.81-33.81-33.81l-12.967-.003-6.581-24.006 139.172.01 33.568 33.569c5.436 5.435 12.662 8.428 20.347 8.428 7.686 0 14.912-2.993 20.348-8.428 11.219-11.22 11.219-29.475-.001-40.695zm-175.466 61.122-184.22-.027c1.767-8.551 9.355-14.999 18.421-14.999l147.376.029c9.067 0 16.656 6.447 18.423 14.997zm-46.943-30.002-90.333-.018 6.577-23.992 77.176.006zM457 121.52l-44.343-.003a157.816 157.816 0 0 0-11.428-15.998l55.771.004zM58.5 227.994v-45h65.01a157.877 157.877 0 0 0-1.51 21.743c0 7.901.592 15.666 1.723 23.257zm78.5-23.257c0-78.433 63.81-142.243 142.243-142.243 70.598 0 129.706 50.544 140.544 120.183.637 4.093 4.472 6.898 8.564 6.257a7.499 7.499 0 0 0 6.257-8.564 156.27 156.27 0 0 0-13.681-43.852l36.072.003-.005 205.273-25.093-25.094a14.265 14.265 0 0 0 3.361-9.229c0-3.84-1.496-7.451-4.211-10.167l-14.99-14.99c11.336-19.954 18.22-42.288 19.976-65.61a7.5 7.5 0 0 0-6.916-8.042c-4.129-.303-7.73 2.785-8.042 6.916-5.549 73.683-67.851 131.401-141.836 131.401C200.81 346.98 137 283.17 137 204.737zm232.786 128.57a158.148 158.148 0 0 0 38.035-38.019l12.183 12.183-38.027 38.027zm123.18 85.152c-2.602 2.602-6.062 4.035-9.741 4.035s-7.139-1.433-9.741-4.035l-71.628-71.628 19.481-19.482 71.628 71.628c5.371 5.372 5.371 14.111.001 19.482z"
            fill="#000000" data-original="#000000" class=""></path>
        <path
            d="M279.243 77.443c-70.19 0-127.294 57.104-127.294 127.294 0 40.54 19.583 79.018 52.383 102.928 3.347 2.441 8.039 1.704 10.479-1.643s1.705-8.039-1.643-10.479c-28.94-21.097-46.219-55.044-46.219-90.807 0-61.919 50.375-112.294 112.294-112.294s112.294 50.375 112.294 112.294S341.162 317.03 279.243 317.03c-12.753 0-25.262-2.119-37.179-6.298a7.497 7.497 0 0 0-9.559 4.595 7.5 7.5 0 0 0 4.595 9.559c13.516 4.741 27.694 7.144 42.143 7.144 70.19 0 127.294-57.104 127.294-127.294S349.434 77.443 279.243 77.443z"
            fill="#000000" data-original="#000000" class=""></path>
        <path
            d="M282.808 185.363a7.5 7.5 0 0 0 0-15h-22.647a7.5 7.5 0 0 0-7.5 7.5v53.747a7.5 7.5 0 0 0 7.5 7.5h22.647a7.5 7.5 0 0 0 0-15h-15.147v-11.873h13.477a7.5 7.5 0 0 0 0-15h-13.477v-11.874zM210.938 224.358c-5.191 0-10.18-2.085-13.345-5.577a7.5 7.5 0 1 0-11.115 10.073c6.05 6.675 14.965 10.504 24.459 10.504 11.78 0 21.677-7.544 23.533-17.938 1.401-7.85-2.125-18.091-16.228-23.292-4.531-1.65-11.963-4.36-14.788-5.948-.79-.43-1.132-1.202-1.019-2.295.157-1.514 1.285-3.422 3.983-4.235 7.256-2.184 14.051 3.149 14.265 3.32a7.497 7.497 0 0 0 10.524-.952 7.5 7.5 0 0 0-.916-10.567c-.524-.44-13.014-10.739-28.2-6.164-8.035 2.42-13.756 9.114-14.578 17.054-.739 7.146 2.619 13.665 8.766 17.012 3.09 1.782 10.177 4.468 16.771 6.848 1.723.635 7.294 2.988 6.652 6.583-.486 2.74-3.899 5.574-8.764 5.574zM376.233 204.737c0-19.09-15.531-34.621-34.621-34.621s-34.621 15.531-34.621 34.621 15.531 34.621 34.621 34.621 34.621-15.531 34.621-34.621zm-54.242 0c0-10.819 8.802-19.621 19.621-19.621s19.621 8.802 19.621 19.621-8.802 19.621-19.621 19.621-19.621-8.802-19.621-19.621z"
            fill="#000000" data-original="#000000" class=""></path>
    </g>
</svg>