<svg xmlns="http://www.w3.org/2000/svg" version="1.1" xmlns:xlink="http://www.w3.org/1999/xlink"
    xmlns:svgjs="http://svgjs.com/svgjs" width="80" height="80" x="0" y="0" viewBox="0 0 512 512"
    style="enable-background:new 0 0 512 512" xml:space="preserve" class="">
    <g>
        <path
            d="M474.427 46.09H230.951v15.029h243.476c12.43 0 22.544 10.113 22.544 22.544v222.935H229.448V85.59l-37.573-62.622-37.574 62.622v221.009h-25.049V0H44.086v306.599H15.029V83.663c0-9.257 5.801-17.715 14.435-21.044l-5.409-14.022C9.667 54.147 0 68.238 0 83.663v280.548c0 20.718 16.855 37.573 37.573 37.573h140.775v55.108h-22.544c-15.193 0-27.554 12.36-27.554 27.554V512h255.5v-27.554c0-15.194-12.361-27.554-27.554-27.554h-22.544v-55.108h140.775c20.718 0 37.573-16.855 37.573-37.573V83.663c0-20.718-16.855-37.573-37.573-37.573zm-282.552 6.09 19.749 32.914-19.749 11.848-19.749-11.849 19.749-32.913zm-22.544 48.763 22.544 13.526 22.544-13.526V266.52h-45.088V100.943zm0 180.607h45.088v25.049h-45.088V281.55zm-110.216 7.014h36.571v-15.029H59.115v-15.029h20.54v-15.029h-20.54v-15.029h36.571v-15.029H59.115V198.39h20.54v-15.029h-20.54v-15.029h36.571v-15.029H59.115V138.27h20.54v-15.029h-20.54v-15.029h36.571v-15.03H59.115V78.153h20.54v-15.03h-20.54V48.094h36.571V33.065H59.115V15.029h55.108v291.569H59.115v-18.034zm297.081 183.358c6.906 0 12.524 5.618 12.524 12.524v12.524H143.28v-12.524c0-6.906 5.618-12.524 12.524-12.524h200.392zm-162.818-15.03v-55.108h125.245v55.108H193.378zm303.593-92.681c0 12.431-10.114 22.544-22.544 22.544H37.573c-12.43 0-22.544-10.113-22.544-22.544v-42.583H496.97v42.583z"
            fill="#000000" data-original="#000000" class=""></path>
        <path
            d="M306.599 76.149v85.166h175.342V76.149H306.599zm160.313 70.137H321.628V91.178h145.284v55.108zM306.599 176.344v55.108h80.157v-55.108h-80.157zm65.127 40.079h-50.098v-25.049h50.098v25.049zM401.785 176.344v55.108h80.157v-55.108h-80.157zm65.127 40.079h-50.098v-25.049h50.098v25.049zM290.067 91.178V76.149h-45.089v15.029h15.03V276.54h-15.03v15.029h45.089V276.54h-15.03V91.178zM248.485 346.677h15.029v15.029h-15.029zM278.544 346.677h15.029v15.029h-15.029zM218.427 346.677h15.029v15.029h-15.029zM184.36 195.883h15.029v15.029H184.36zM184.36 225.941h15.029v25.049H184.36zM184.36 130.755h15.029v50.098H184.36zM364.211 251.491h15.029v15.029h-15.029zM314.114 251.491h35.068v15.029h-35.068zM409.299 251.491h35.068v15.029h-35.068zM459.397 251.491h15.029v15.029h-15.029z"
            fill="#000000" data-original="#000000" class=""></path>
    </g>
</svg>